<!DOCTYPE svg PUBLIC "-//W3C//DTD SVG 1.1//EN" "http://www.w3.org/Graphics/SVG/1.1/DTD/svg11.dtd">
<!-- Uploaded to: SVG Repo, www.svgrepo.com, Transformed by: SVG Repo Mixer Tools -->
<svg width="800px" height="800px" viewBox="0 0 16 16" xmlns="http://www.w3.org/2000/svg" fill="#" stroke="#">
<g id="SVGRepo_bgCarrier" stroke-width="0"/>
<g id="SVGRepo_tracerCarrier" stroke-linecap="round" stroke-linejoin="round"/>
<g id="SVGRepo_iconCarrier"> <path d="m 13 1 c -0.554688 0 -1 0.445312 -1 1 v 7.269531 c 0.148438 0.089844 0.289062 0.191407 0.414062 0.316407 l 0.414063 0.414062 h 0.34375 l 0.414063 -0.414062 c 0.375 -0.375 0.882812 -0.585938 1.414062 -0.585938 v -7 c 0 -0.554688 -0.445312 -1 -1 -1 z m -4 3 c -0.554688 0 -1 0.445312 -1 1 v 9 c 0 0.554688 0.445312 1 1 1 h 0.007812 c 0 -0.515625 0.191407 -1.027344 0.578126 -1.414062 l 0.414062 -0.414063 v -0.34375 l -0.414062 -0.414063 c -0.773438 -0.773437 -0.773438 -2.054687 0 -2.828124 c 0.375 -0.375 0.882812 -0.585938 1.414062 -0.585938 v -4 c 0 -0.554688 -0.445312 -1 -1 -1 z m -4 3 c -0.554688 0 -1 0.445312 -1 1 v 6 c 0 0.554688 0.445312 1 1 1 h 1 c 0.554688 0 1 -0.445312 1 -1 v -6 c 0 -0.554688 -0.445312 -1 -1 -1 z m -4 3 c -0.554688 0 -1 0.445312 -1 1 v 3 c 0 0.554688 0.445312 1 1 1 h 1 c 0.554688 0 1 -0.445312 1 -1 v -3 c 0 -0.554688 -0.445312 -1 -1 -1 z m 0 0" fill="#0066f5" fill-opacity="0.34902"/> <path d="m 11 10 c -0.265625 0 -0.519531 0.105469 -0.707031 0.292969 c -0.390625 0.390625 -0.390625 1.023437 0 1.414062 l 1.292969 1.292969 l -1.292969 1.292969 c -0.390625 0.390625 -0.390625 1.023437 0 1.414062 s 1.023437 0.390625 1.414062 0 l 1.292969 -1.292969 l 1.292969 1.292969 c 0.390625 0.390625 1.023437 0.390625 1.414062 0 s 0.390625 -1.023437 0 -1.414062 l -1.292969 -1.292969 l 1.292969 -1.292969 c 0.390625 -0.390625 0.390625 -1.023437 0 -1.414062 c -0.1875 -0.1875 -0.441406 -0.292969 -0.707031 -0.292969 s -0.519531 0.105469 -0.707031 0.292969 l -1.292969 1.292969 l -1.292969 -1.292969 c -0.1875 -0.1875 -0.441406 -0.292969 -0.707031 -0.292969 z m 0 0" fill="#2563EB"/> </g>
</svg>